<?xml version="1.0" standalone="no"?>
<!DOCTYPE svg PUBLIC "-//W3C//DTD SVG 20010904//EN"
 "http://www.w3.org/TR/2001/REC-SVG-20010904/DTD/svg10.dtd">
<svg version="1.0" xmlns="http://www.w3.org/2000/svg"
 width="24.000000pt" height="24.000000pt" viewBox="0 0 24.000000 24.000000"
 preserveAspectRatio="xMidYMid meet">

<g transform="translate(0.000000,24.000000) scale(0.100000,-0.100000)"
 stroke="none">
<path d="M58 182 l-47 -28 54 -29 54 -30 46 23 c25 12 48 22 50 22 3 0 5 -16
5 -35 0 -19 5 -35 10 -35 6 0 10 18 10 39 0 37 -3 41 -55 70 -30 17 -60 31
-67 31 -7 0 -34 -13 -60 -28z"/>
<path d="M50 83 c0 -12 13 -25 35 -36 33 -16 37 -16 70 0 21 10 35 24 35 35 0
18 -1 18 -37 0 -36 -19 -37 -19 -70 0 -32 20 -33 20 -33 1z"/>
</g>
</svg>
