<svg width="27" height="28" viewBox="0 0 27 28" fill="none" xmlns="http://www.w3.org/2000/svg">
<path d="M2.66667 26.6667C1.93333 26.6667 1.30556 26.4056 0.783333 25.8833C0.261111 25.3611 0 24.7333 0 24V5.33333C0 4.6 0.261111 3.97222 0.783333 3.45C1.30556 2.92778 1.93333 2.66667 2.66667 2.66667H4V0H6.66667V2.66667H17.3333V0H20V2.66667H21.3333C22.0667 2.66667 22.6944 2.92778 23.2167 3.45C23.7389 3.97222 24 4.6 24 5.33333V12.9C23.5778 12.7 23.1444 12.5333 22.7 12.4C22.2556 12.2667 21.8 12.1667 21.3333 12.1V10.6667H2.66667V24H11.0667C11.2222 24.4889 11.4056 24.9556 11.6167 25.4C11.8278 25.8444 12.0778 26.2667 12.3667 26.6667H2.66667ZM20 28C18.1556 28 16.5833 27.35 15.2833 26.05C13.9833 24.75 13.3333 23.1778 13.3333 21.3333C13.3333 19.4889 13.9833 17.9167 15.2833 16.6167C16.5833 15.3167 18.1556 14.6667 20 14.6667C21.8444 14.6667 23.4167 15.3167 24.7167 16.6167C26.0167 17.9167 26.6667 19.4889 26.6667 21.3333C26.6667 23.1778 26.0167 24.75 24.7167 26.05C23.4167 27.35 21.8444 28 20 28ZM22.2333 24.5L23.1667 23.5667L20.6667 21.0667V17.3333H19.3333V21.6L22.2333 24.5Z" fill="#FF4136"/>
</svg>
