<svg width="25" height="28" viewBox="0 0 25 28" fill="none" xmlns="http://www.w3.org/2000/svg">
<path d="M21.8333 3.33464H20.5V0.667969H17.8333V3.33464H7.16667V0.667969H4.5V3.33464H3.16667C1.68667 3.33464 0.513333 4.53464 0.513333 6.0013L0.5 24.668C0.5 26.1346 1.68667 27.3346 3.16667 27.3346H21.8333C23.3 27.3346 24.5 26.1346 24.5 24.668V6.0013C24.5 4.53464 23.3 3.33464 21.8333 3.33464ZM21.8333 24.668H3.16667V11.3346H21.8333V24.668ZM8.5 16.668H5.83333V14.0013H8.5V16.668ZM13.8333 16.668H11.1667V14.0013H13.8333V16.668ZM19.1667 16.668H16.5V14.0013H19.1667V16.668ZM8.5 22.0013H5.83333V19.3346H8.5V22.0013ZM13.8333 22.0013H11.1667V19.3346H13.8333V22.0013ZM19.1667 22.0013H16.5V19.3346H19.1667V22.0013Z" fill="#666666"/>
</svg>
