<svg viewBox="0 0 24 24" xmlns="http://www.w3.org/2000/svg">
  <path
    d="M2.8 4.875V7.5H1.6C1.17565 7.5 0.768687 7.65804 0.468629 7.93934C0.168571 8.22064 0 8.60218 0 9L0 16.5C0 16.8978 0.168571 17.2794 0.468629 17.5607C0.768687 17.842 1.17565 18 1.6 18H14.4C14.8243 18 15.2313 17.842 15.5314 17.5607C15.8314 17.2794 16 16.8978 16 16.5V9C16 8.60218 15.8314 8.22064 15.5314 7.93934C15.2313 7.65804 14.8243 7.5 14.4 7.5H13.2V4.875C13.2 3.58207 12.6521 2.34209 11.677 1.42785C10.7018 0.513615 9.37913 0 8 0C6.62087 0 5.29823 0.513615 4.32304 1.42785C3.34786 2.34209 2.8 3.58207 2.8 4.875ZM4.8 7.5V4.875C4.8 4.07935 5.13714 3.31629 5.73726 2.75368C6.33737 2.19107 7.15131 1.875 8 1.875C8.84869 1.875 9.66263 2.19107 10.2627 2.75368C10.8629 3.31629 11.2 4.07935 11.2 4.875V7.5H4.8ZM6.4 11.625C6.40006 11.3651 6.47213 11.1098 6.60914 10.8839C6.74616 10.658 6.94342 10.4693 7.18159 10.3364C7.41977 10.2035 7.6907 10.1309 7.96783 10.1256C8.24495 10.1204 8.51878 10.1828 8.76246 10.3066C9.00615 10.4304 9.21134 10.6115 9.35793 10.832C9.50453 11.0526 9.58749 11.305 9.59869 11.5647C9.6099 11.8243 9.54896 12.0823 9.42185 12.3132C9.29474 12.5441 9.10582 12.7401 8.8736 12.882L8.8672 12.8857C8.8672 12.8857 9.0232 13.7708 9.1992 14.8132V14.814C9.1992 14.963 9.13607 15.1059 9.0237 15.2112C8.91133 15.3166 8.75892 15.3757 8.6 15.3757H7.3984C7.23948 15.3757 7.08707 15.3166 6.9747 15.2112C6.86233 15.1059 6.7992 14.963 6.7992 14.814V14.8132L7.1312 12.8857C6.90657 12.7498 6.72183 12.5632 6.59383 12.3431C6.46583 12.1231 6.39865 11.8764 6.3984 11.6258L6.4 11.625Z" />
</svg>