<svg width="25" height="24" viewBox="0 0 25 24" fill="none" xmlns="http://www.w3.org/2000/svg">
<g clip-path="url(#clip0_806_20511)">
<path d="M21.76 12.8185H17.9431V10.91H21.76V12.8185ZM21.76 13.909H17.9431V15.8175H21.76V13.909ZM21.76 4.91211H17.9431V6.82053H21.76V4.91211ZM21.76 7.91108H17.9431V9.8195H21.76V7.91108ZM21.76 16.908H17.9431V18.8165H21.76V16.908ZM24.3964 20.6704C24.2873 21.2375 23.6057 21.251 23.1504 21.2702H14.6715V23.7238H12.9785L0.5 21.5428V2.46116L13.0521 0.277344H14.6715V2.45023H22.8587C23.3195 2.46931 23.8266 2.43659 24.2273 2.71194C24.5082 3.11544 24.4809 3.62802 24.5 4.09147L24.4891 18.2848C24.4755 19.0782 24.5627 19.8879 24.3964 20.6704ZM10.4975 16.3927C9.74502 14.866 8.97894 13.3501 8.22917 11.8234C8.97073 10.3375 9.70142 8.84623 10.4293 7.35491C9.81045 7.38491 9.19156 7.42306 8.57544 7.4667C8.11466 8.5872 7.57756 9.67775 7.2177 10.8365C6.88236 9.74319 6.43798 8.6908 6.03177 7.62481C5.43195 7.65753 4.83214 7.69297 4.23238 7.72841C4.86486 9.12434 5.53831 10.5011 6.15172 11.9052C5.42923 13.2683 4.75311 14.6506 4.05242 16.022C4.64947 16.0465 5.24656 16.071 5.84361 16.0792C6.26895 14.9941 6.79784 13.9499 7.16863 12.843C7.50125 14.0317 8.06558 15.1304 8.52908 16.2673C9.18612 16.3137 9.84041 16.3546 10.4975 16.3927ZM23.1997 3.74506H14.6715V4.91211H16.8526V6.82053H14.6715V7.91108H16.8526V9.8195H14.6715V10.91H16.8526V12.8185H14.6715V13.909H16.8526V15.8175H14.6715V16.908H16.8526V18.8165H14.6715V20.0773H23.1997V3.74506Z" fill="#F8F9FA"/>
</g>
<defs>
<clipPath id="clip0_806_20511">
<rect width="24" height="24" fill="white" transform="translate(0.5)"/>
</clipPath>
</defs>
</svg>
