<?xml version="1.0" standalone="no"?>
<!DOCTYPE svg PUBLIC "-//W3C//DTD SVG 20010904//EN"
 "http://www.w3.org/TR/2001/REC-SVG-20010904/DTD/svg10.dtd">
<svg version="1.0" xmlns="http://www.w3.org/2000/svg"
 width="24.000000pt" height="24.000000pt" viewBox="0 0 24.000000 24.000000"
 preserveAspectRatio="xMidYMid meet">

<g transform="translate(0.000000,24.000000) scale(0.100000,-0.100000)"
 stroke="none">
<path d="M188 178 c9 -9 5 -19 -20 -45 l-32 -33 -23 22 -23 22 -40 -39 c-22
-22 -40 -44 -40 -49 0 -6 18 7 40 29 l40 39 25 -24 25 -24 38 37 c30 29 41 34
50 25 9 -9 12 -5 12 20 0 29 -3 32 -32 32 -25 0 -29 -3 -20 -12z"/>
</g>
</svg>
