<svg width="24" height="24" viewBox="0 0 24 24" fill="none" xmlns="http://www.w3.org/2000/svg">
<path d="M6.8 7.875V10.5H5.6C5.17565 10.5 4.76869 10.658 4.46863 10.9393C4.16857 11.2206 4 11.6022 4 12V19.5C4 19.8978 4.16857 20.2794 4.46863 20.5607C4.76869 20.842 5.17565 21 5.6 21H18.4C18.8243 21 19.2313 20.842 19.5314 20.5607C19.8314 20.2794 20 19.8978 20 19.5V12C20 11.6022 19.8314 11.2206 19.5314 10.9393C19.2313 10.658 18.8243 10.5 18.4 10.5H17.2V7.875C17.2 6.58207 16.6521 5.34209 15.677 4.42785C14.7018 3.51361 13.3791 3 12 3C10.6209 3 9.29823 3.51361 8.32304 4.42785C7.34786 5.34209 6.8 6.58207 6.8 7.875ZM8.8 10.5V7.875C8.8 7.07935 9.13714 6.31629 9.73726 5.75368C10.3374 5.19107 11.1513 4.875 12 4.875C12.8487 4.875 13.6626 5.19107 14.2627 5.75368C14.8629 6.31629 15.2 7.07935 15.2 7.875V10.5H8.8ZM10.4 14.625C10.4001 14.3651 10.4721 14.1098 10.6091 13.8839C10.7462 13.658 10.9434 13.4693 11.1816 13.3364C11.4198 13.2035 11.6907 13.1309 11.9678 13.1256C12.245 13.1204 12.5188 13.1828 12.7625 13.3066C13.0062 13.4304 13.2113 13.6115 13.3579 13.832C13.5045 14.0526 13.5875 14.305 13.5987 14.5647C13.6099 14.8243 13.549 15.0823 13.4219 15.3132C13.2947 15.5441 13.1058 15.7401 12.8736 15.882L12.8672 15.8857C12.8672 15.8857 13.0232 16.7708 13.1992 17.8132V17.814C13.1992 17.963 13.1361 18.1059 13.0237 18.2112C12.9113 18.3166 12.7589 18.3757 12.6 18.3757H11.3984C11.2395 18.3757 11.0871 18.3166 10.9747 18.2112C10.8623 18.1059 10.7992 17.963 10.7992 17.814V17.8132L11.1312 15.8857C10.9066 15.7498 10.7218 15.5632 10.5938 15.3431C10.4658 15.1231 10.3986 14.8764 10.3984 14.6258L10.4 14.625Z" fill="#343434"/>
</svg>
