<svg viewBox="0 0 24 24" xmlns="http://www.w3.org/2000/svg">
  <path
    d="M0 16.4999C0 16.8978 0.168571 17.2793 0.468629 17.5606C0.768687 17.842 1.17565 18 1.6 18H14.4C14.8243 18 15.2313 17.842 15.5314 17.5606C15.8314 17.2793 16 16.8978 16 16.4999V8.99962C16 8.60178 15.8314 8.22024 15.5314 7.93892C15.2313 7.6576 14.8243 7.49956 14.4 7.49956H4.8V4.87445C4.8 4.07877 5.13714 3.31568 5.73726 2.75304C6.33737 2.19041 7.15131 1.87433 8 1.87433C8.84869 1.87433 9.66263 2.19041 10.2627 2.75304C10.8629 3.31568 11.2 4.07877 11.2 4.87445V5.08596C11.2 5.33461 11.3054 5.57308 11.4929 5.7489C11.6804 5.92472 11.9348 6.0235 12.2 6.0235C12.4652 6.0235 12.7196 5.92472 12.9071 5.7489C13.0946 5.57308 13.2 5.33461 13.2 5.08596V5.06121V5.06271V4.8752C13.2 3.58222 12.6521 2.34219 11.677 1.42791C10.7018 0.513636 9.37913 0 8 0C6.62087 0 5.29823 0.513636 4.32304 1.42791C3.34786 2.34219 2.8 3.58222 2.8 4.8752V7.50031H1.6C1.17565 7.50031 0.768687 7.65835 0.468629 7.93967C0.168571 8.22099 0 8.60253 0 9.00037L0 16.4999ZM6.4 11.6247C6.40006 11.3649 6.47213 11.1095 6.60914 10.8836C6.74616 10.6577 6.94342 10.469 7.18159 10.3361C7.41977 10.2032 7.6907 10.1305 7.96783 10.1253C8.24495 10.1201 8.51878 10.1824 8.76246 10.3063C9.00615 10.4301 9.21134 10.6112 9.35793 10.8317C9.50453 11.0523 9.58749 11.3048 9.59869 11.5644C9.6099 11.8241 9.54896 12.082 9.42185 12.3129C9.29474 12.5439 9.10582 12.7399 8.8736 12.8818L8.8672 12.8855C8.8672 12.8855 9.0232 13.7706 9.1992 14.8131V14.8139C9.1992 14.9629 9.13607 15.1057 9.0237 15.2111C8.91133 15.3165 8.75892 15.3756 8.6 15.3756H7.3984C7.23948 15.3756 7.08707 15.3165 6.9747 15.2111C6.86233 15.1057 6.7992 14.9629 6.7992 14.8139V14.8131L7.1312 12.8855C6.90657 12.7496 6.72183 12.563 6.59383 12.3429C6.46583 12.1228 6.39865 11.8762 6.3984 11.6255L6.4 11.6247Z" />
</svg>