<svg width="25" height="24" viewBox="0 0 25 24" fill="none" xmlns="http://www.w3.org/2000/svg">
<g clip-path="url(#clip0_806_20510)">
<path d="M4.5001 10.4V9.6H3.7001V10.4H4.5001ZM10.9001 10.4V9.6H10.1001V10.4H10.9001ZM10.9001 16.8H10.1001V17.6H10.9001V16.8ZM22.1001 5.6H22.9001V5.2688L22.6665 5.0336L22.1001 5.6ZM17.3001 0.8L17.8665 0.2336L17.6313 0H17.3001V0.8ZM4.5001 11.2H6.1001V9.6H4.5001V11.2ZM5.3001 17.6V13.6H3.7001V17.6H5.3001ZM5.3001 13.6V10.4H3.7001V13.6H5.3001ZM6.1001 12.8H4.5001V14.4H6.1001V12.8ZM6.9001 12C6.9001 12.2122 6.81581 12.4157 6.66578 12.5657C6.51575 12.7157 6.31227 12.8 6.1001 12.8V14.4C6.73662 14.4 7.34707 14.1471 7.79715 13.6971C8.24724 13.247 8.5001 12.6365 8.5001 12H6.9001ZM6.1001 11.2C6.31227 11.2 6.51575 11.2843 6.66578 11.4343C6.81581 11.5843 6.9001 11.7878 6.9001 12H8.5001C8.5001 11.3635 8.24724 10.753 7.79715 10.3029C7.34707 9.85286 6.73662 9.6 6.1001 9.6V11.2ZM10.1001 10.4V16.8H11.7001V10.4H10.1001ZM10.9001 17.6H12.5001V16H10.9001V17.6ZM14.9001 15.2V12H13.3001V15.2H14.9001ZM12.5001 9.6H10.9001V11.2H12.5001V9.6ZM14.9001 12C14.9001 11.3635 14.6472 10.753 14.1972 10.3029C13.7471 9.85286 13.1366 9.6 12.5001 9.6V11.2C12.7123 11.2 12.9158 11.2843 13.0658 11.4343C13.2158 11.5843 13.3001 11.7878 13.3001 12H14.9001ZM12.5001 17.6C13.1366 17.6 13.7471 17.3471 14.1972 16.8971C14.6472 16.447 14.9001 15.8365 14.9001 15.2H13.3001C13.3001 15.4122 13.2158 15.6157 13.0658 15.7657C12.9158 15.9157 12.7123 16 12.5001 16V17.6ZM16.5001 9.6V17.6H18.1001V9.6H16.5001ZM17.3001 11.2H21.3001V9.6H17.3001V11.2ZM17.3001 14.4H19.7001V12.8H17.3001V14.4ZM3.7001 8V2.4H2.1001V8H3.7001ZM21.3001 5.6V8H22.9001V5.6H21.3001ZM4.5001 1.6H17.3001V0H4.5001V1.6ZM16.7337 1.3664L21.5337 6.1664L22.6665 5.0336L17.8665 0.2336L16.7337 1.3664ZM3.7001 2.4C3.7001 2.18783 3.78438 1.98434 3.93441 1.83431C4.08444 1.68429 4.28792 1.6 4.5001 1.6V0C3.86358 0 3.25313 0.252856 2.80304 0.702944C2.35295 1.15303 2.1001 1.76348 2.1001 2.4H3.7001ZM2.1001 19.2V21.6H3.7001V19.2H2.1001ZM4.5001 24H20.5001V22.4H4.5001V24ZM22.9001 21.6V19.2H21.3001V21.6H22.9001ZM20.5001 24C21.1366 24 21.7471 23.7471 22.1972 23.2971C22.6472 22.847 22.9001 22.2365 22.9001 21.6H21.3001C21.3001 21.8122 21.2158 22.0157 21.0658 22.1657C20.9158 22.3157 20.7123 22.4 20.5001 22.4V24ZM2.1001 21.6C2.1001 22.2365 2.35295 22.847 2.80304 23.2971C3.25313 23.7471 3.86358 24 4.5001 24V22.4C4.28792 22.4 4.08444 22.3157 3.93441 22.1657C3.78438 22.0157 3.7001 21.8122 3.7001 21.6H2.1001Z" fill="#F8F9FA"/>
</g>
<defs>
<clipPath id="clip0_806_20510">
<rect width="24" height="24" fill="white" transform="translate(0.5)"/>
</clipPath>
</defs>
</svg>
