<svg width="32" height="32" viewBox="0 0 32 32" fill="none" xmlns="http://www.w3.org/2000/svg">
  <g id="Menu Icon / Acompanhamento" clip-path="url(#clip0_1180_4124)">
    <path id="acompanhamento (Traced)" fill-rule="evenodd" clip-rule="evenodd"
      d="M3.3236 0.192053C2.3296 0.427589 1.33519 1.12896 0.695962 2.04514L0.110624 2.88441L0 26.8239L0.515843 27.6988C1.06147 28.6239 2.28766 29.5757 3.43321 29.9636C3.88564 30.1168 5.83291 30.1933 9.10627 30.1865L14.0907 30.176L20.3679 24.1576H5.48625L4.85492 23.5971C4.09149 22.9195 3.99099 21.8008 4.61787 20.9611C5.35557 19.9731 5.995 19.9016 13.4828 19.9688C19.7183 20.0248 20.4224 20.0651 20.9082 20.3928C21.4269 20.7427 21.7961 21.4084 21.9355 22.2451C21.99 22.573 22.3863 22.2783 24.0742 20.6545L26.1459 18.6613V8.05252H23.0966C19.8583 8.05252 19.3838 7.94502 18.5071 7.01193C17.645 6.09455 17.4337 5.21078 17.4337 2.52285V0L10.697 0.020534C6.99164 0.0320088 3.67371 0.109112 3.3236 0.192053ZM19.6924 2.37489C19.757 4.25193 19.8371 4.69824 20.1932 5.17274L20.6171 5.73742L23.3815 5.79338C26.0677 5.84794 26.1459 5.83747 26.1459 5.42901C26.1459 4.51706 21.6008 0.536096 20.254 0.268551L19.6156 0.141724L19.6924 2.37489ZM20.8975 12.3332C22.0672 13.123 22.1964 14.4327 21.2022 15.4206L20.5134 16.105H5.48625L4.85492 15.5446C3.70167 14.5207 4.15713 12.6857 5.70142 12.1343C6.20511 11.9546 8.27921 11.9002 13.3815 11.933C19.68 11.9737 20.4236 12.0133 20.8975 12.3332ZM29.2863 19.7176C29.0635 19.8084 28.7326 20.0518 28.5511 20.2585C28.2388 20.6144 28.2968 20.7028 29.6348 21.9091L31.0486 23.1838L31.5351 22.7296C32.1375 22.1674 32.1545 21.4861 31.5862 20.6932C31.2433 20.2146 30.0583 19.471 29.7487 19.54C29.7173 19.5471 29.5092 19.627 29.2863 19.7176ZM23.8967 24.4205C19.4594 28.4516 19.1996 28.7364 18.7993 30.0133C18.6054 30.632 18.4467 31.3464 18.4467 31.6009C18.4467 32.0311 18.5085 32.0551 19.3301 31.9431C21.4383 31.6561 22.225 31.1588 25.9433 27.7635C27.8934 25.9827 29.5129 24.4621 29.542 24.3848C29.5712 24.3073 28.9695 23.6873 28.2046 23.007L26.8143 21.7702L23.8967 24.4205Z"
      fill="#666666" />
  </g>
  <defs>
    <clipPath id="clip0_1180_4124">
      <rect width="32" height="32" fill="white" />
    </clipPath>
  </defs>
</svg>