<svg width="24" height="24" viewBox="0 0 24 24" fill="none" xmlns="http://www.w3.org/2000/svg">
<path d="M4 19.8124C4 20.2103 4.16857 20.5918 4.46863 20.8731C4.76869 21.1545 5.17565 21.3125 5.6 21.3125H18.4C18.8243 21.3125 19.2313 21.1545 19.5314 20.8731C19.8314 20.5918 20 20.2103 20 19.8124V12.3121C20 11.9143 19.8314 11.5327 19.5314 11.2514C19.2313 10.9701 18.8243 10.8121 18.4 10.8121H8.8V8.18695C8.8 7.39127 9.13714 6.62818 9.73726 6.06554C10.3374 5.50291 11.1513 5.18683 12 5.18683C12.8487 5.18683 13.6626 5.50291 14.2627 6.06554C14.8629 6.62818 15.2 7.39127 15.2 8.18695V8.39846C15.2 8.64711 15.3054 8.88558 15.4929 9.0614C15.6804 9.23722 15.9348 9.336 16.2 9.336C16.4652 9.336 16.7196 9.23722 16.9071 9.0614C17.0946 8.88558 17.2 8.64711 17.2 8.39846V8.37371V8.37521V8.1877C17.2 6.89472 16.6521 5.65469 15.677 4.74041C14.7018 3.82614 13.3791 3.3125 12 3.3125C10.6209 3.3125 9.29823 3.82614 8.32304 4.74041C7.34786 5.65469 6.8 6.89472 6.8 8.1877V10.8128H5.6C5.17565 10.8128 4.76869 10.9709 4.46863 11.2522C4.16857 11.5335 4 11.915 4 12.3129V19.8124ZM10.4 14.9372C10.4001 14.6774 10.4721 14.422 10.6091 14.1961C10.7462 13.9702 10.9434 13.7815 11.1816 13.6486C11.4198 13.5157 11.6907 13.443 11.9678 13.4378C12.245 13.4326 12.5188 13.4949 12.7625 13.6188C13.0062 13.7426 13.2113 13.9237 13.3579 14.1442C13.5045 14.3648 13.5875 14.6173 13.5987 14.8769C13.6099 15.1366 13.549 15.3945 13.4219 15.6254C13.2947 15.8564 13.1058 16.0524 12.8736 16.1943L12.8672 16.198C12.8672 16.198 13.0232 17.0831 13.1992 18.1256V18.1264C13.1992 18.2754 13.1361 18.4182 13.0237 18.5236C12.9113 18.629 12.7589 18.6881 12.6 18.6881H11.3984C11.2395 18.6881 11.0871 18.629 10.9747 18.5236C10.8623 18.4182 10.7992 18.2754 10.7992 18.1264V18.1256L11.1312 16.198C10.9066 16.0621 10.7218 15.8755 10.5938 15.6554C10.4658 15.4353 10.3986 15.1887 10.3984 14.938L10.4 14.9372Z" fill="#343434"/>
</svg>
